<?xml version="1.0" encoding="utf-8"?>
<svg version="1.1" id="Layer_1" xmlns="http://www.w3.org/2000/svg" x="0px" y="0px" width="100%" viewBox="0 0 400 320" enable-background="new 0 0 400 320">
  <path opacity="1.000000" stroke="none" d=" M204.628693,160.999847 C204.971298,131.684067 206.422379,102.826263 205.325821,74.065590 C204.382416,49.322121 228.795227,26.191633 252.014740,25.538078 C291.144867,24.436693 330.262970,23.593981 369.406830,23.567900 C374.498627,23.564508 376.188629,25.528761 376.339172,30.208893 C376.674408,40.629463 375.313934,50.847279 372.319061,60.761345 C367.435120,76.928841 354.836578,85.466248 335.238403,86.302986 C319.596863,86.970795 303.951324,87.462273 288.288788,87.428627 C282.472260,87.416130 276.656708,88.056053 270.836273,88.285378 C267.721558,88.408104 266.295990,89.934265 266.284821,92.973076 C266.240723,104.970184 266.225189,116.967598 266.116486,128.964157 C266.079681,133.025986 268.866150,132.889755 271.587524,132.896408 C285.753662,132.931000 299.920135,132.891586 314.085999,132.970154 C328.574890,133.050522 343.064423,132.649673 357.551025,133.601486 C367.900757,134.281494 370.369476,136.523849 370.329315,146.931366 C370.290283,157.053070 371.221222,167.277054 367.247925,177.016815 C362.821808,187.866486 354.791351,194.898880 344.070618,199.092606 C340.108215,200.642609 336.058990,201.134445 331.286011,198.763489 C331.286011,205.605942 331.229309,211.864609 331.311310,218.121445 C331.349121,221.002930 331.018585,223.830292 329.879700,226.426498 C328.515686,229.535904 326.141785,231.677368 322.473145,231.212601 C318.832458,230.751373 317.062378,228.352814 316.654358,224.770920 C315.107117,211.189026 315.376221,197.522232 314.664276,183.902023 C314.568420,182.068466 315.390564,179.891373 313.194305,178.425430 C311.714417,180.243820 312.344421,182.311890 312.335663,184.196701 C312.279907,196.196045 312.312256,208.195938 312.357727,220.195480 C312.366058,222.393097 312.143738,224.485565 311.132202,226.490128 C309.563354,229.599060 307.208435,231.548340 303.634949,231.249084 C300.191925,230.960770 298.313904,228.576736 297.594177,225.437958 C296.136902,219.083176 295.913910,212.564728 295.832367,206.093353 C295.719543,197.137573 295.278595,188.213196 294.609894,179.292770 C294.187103,179.291595 293.764282,179.290421 293.341492,179.289246 C293.341492,191.767303 293.355743,204.245392 293.330627,216.723404 C293.324921,219.548996 293.231903,222.348801 292.612885,225.161530 C291.842682,228.661392 290.219238,231.143234 286.441284,231.203125 C282.722992,231.262100 280.032562,229.166931 278.846466,225.772186 C278.040131,223.464279 277.855225,220.874985 277.752441,218.396606 C277.290070,207.251373 276.997772,196.099121 276.544159,184.953461 C276.443939,182.491333 275.936981,180.045761 275.487885,176.599304 C272.560516,179.443771 273.042938,182.473816 272.960114,184.916275 C272.361755,202.556839 269.387360,219.978195 268.304047,237.570099 C268.039520,241.866150 269.136292,245.234192 272.414581,248.204041 C275.735840,251.212860 278.648010,254.686691 281.629333,258.054230 C286.092926,263.096069 287.314606,268.594360 284.694702,275.131500 C277.992676,291.853912 265.937653,302.778625 248.564316,306.530853 C235.941803,309.256958 223.040924,307.199829 210.515823,304.018555 C207.258102,303.191193 205.832108,300.959808 205.574600,297.427734 C203.681564,271.463562 204.998230,245.469223 204.691711,219.492432 C204.463638,200.164062 204.636932,180.830948 204.628693,160.999847 M351.873138,79.401604 C359.154877,76.132393 364.550690,71.098526 367.697937,63.573048 C371.710205,53.979233 371.961914,43.859333 372.766266,33.747623 C373.173431,28.628531 371.528564,27.209839 366.426178,27.281818 C328.962677,27.810322 291.494781,28.021164 254.029221,28.418777 C248.698059,28.475355 243.403687,29.266024 238.476700,31.477854 C222.232605,38.770164 210.634201,50.501923 208.644867,68.572258 C206.974731,83.743286 207.478287,99.177834 207.419586,114.497238 C207.276581,151.819763 207.254013,189.143616 207.403030,226.466049 C207.494125,249.283966 206.718613,272.109131 207.918594,294.922913 C208.138763,299.108368 209.854156,301.122284 214.031509,301.959045 C222.433670,303.642151 230.882263,303.707092 239.375870,303.687225 C258.511566,303.642517 275.273621,292.023712 281.955627,274.014465 C283.770172,269.123962 283.463684,264.569550 279.662994,260.571228 C275.995941,256.713501 272.348999,252.831055 268.837128,248.833069 C265.443054,244.969254 264.606842,240.388428 265.150665,235.312485 C266.778778,220.116211 268.214996,204.899460 269.747101,189.692810 C270.195709,185.240402 270.572021,180.772858 271.260468,176.355759 C271.609772,174.114792 272.969025,172.157074 275.555389,172.223907 C278.351257,172.296158 278.194153,174.696152 278.443970,176.663528 C280.332031,191.534439 280.065643,206.543152 281.292236,221.458221 C281.551849,224.614822 282.314789,227.335388 285.854614,227.466461 C289.303131,227.594131 289.825195,224.482086 290.523071,221.924271 C290.736267,221.142944 290.582825,220.266190 290.634186,219.435410 C291.365479,207.610703 290.740021,195.781326 290.746124,183.954346 C290.747681,180.934067 291.032288,177.961899 291.803833,175.049255 C292.323822,173.086380 293.571228,171.813171 295.702240,171.833206 C297.940887,171.854248 298.112488,173.636230 298.535645,175.291641 C299.290100,178.243179 299.189667,181.237534 299.274536,184.232407 C299.609192,196.047501 298.591675,207.893829 299.928406,219.677765 C300.303711,222.986130 300.120239,227.727783 305.028168,227.369354 C309.967804,227.008621 309.494568,222.172714 309.569977,218.711334 C309.794861,208.385300 309.605927,198.050964 309.696442,187.720917 C309.735474,183.264679 309.188324,178.765961 310.153595,174.414383 C317.998566,172.358444 318.136963,172.482285 318.166412,180.353409 C318.214386,193.181320 318.233734,206.009949 318.402405,218.836472 C318.449341,222.402832 317.975677,227.123795 323.000244,227.387848 C328.489349,227.676331 328.332397,222.462204 328.475708,218.956848 C328.788025,211.316956 328.902466,203.642487 328.180725,195.987091 C327.601990,189.848160 327.376282,183.672501 328.126862,177.532730 C328.330658,175.865601 328.410370,173.520996 331.049591,173.636017 C333.380859,173.737595 333.106384,175.768051 333.459381,177.360718 C334.372559,181.480911 334.130341,185.652603 334.146759,189.810486 C334.175476,197.091370 336.210876,198.662338 343.271759,196.001480 C354.217499,191.876602 361.785553,184.059586 365.251251,172.969757 C368.414276,162.848572 368.476288,152.354004 366.801331,141.844345 C366.186981,137.989410 364.068909,136.648300 360.444397,136.170090 C353.636414,135.271896 346.820496,135.424332 339.998413,135.411057 C316.864532,135.366089 293.732178,136.880447 270.594788,135.377594 C264.694824,134.994354 263.132843,133.822571 262.698273,128.694702 C261.713135,117.069298 261.139801,105.462379 262.591431,93.812737 C263.390320,87.401741 264.466797,85.938095 270.863159,85.685074 C289.490082,84.948250 308.132080,84.532936 326.747009,83.579544 C334.976105,83.158089 343.484253,83.776665 351.873138,79.401604 z" style="fill: rgb(255, 0, 255);"/>
  <path opacity="1.000000" stroke="none" d=" M69.254166,90.135345 C77.410049,85.486664 86.131424,83.948647 94.853134,82.790672 C99.523376,82.170624 101.690231,80.430000 102.578522,75.640251 C104.642250,64.512352 107.341766,53.517689 114.420158,44.202370 C117.224579,40.511696 120.633041,37.473000 124.942551,36.062778 C139.631790,31.255943 154.441315,26.804049 169.772842,24.473007 C176.516479,23.447689 181.456207,26.790125 182.894012,33.015041 C184.048096,38.011467 180.223618,43.590172 174.489624,45.365059 C163.690842,48.707680 152.520004,50.605465 141.719528,54.009922 C136.010056,55.809628 132.124481,58.812027 129.870911,64.359367 C127.983009,69.006523 126.406715,73.714157 125.367256,78.606667 C124.528038,82.556725 125.672119,85.013512 129.862534,86.576584 C148.055206,93.362724 160.282837,106.995049 170.371613,122.894447 C172.985321,127.013496 174.153885,131.742950 175.321564,136.422607 C177.293396,144.325195 174.426361,147.977859 166.273972,148.371872 C151.474976,149.087082 136.669113,149.103806 121.859169,149.079895 C100.544037,149.045486 79.228455,149.163284 57.913746,149.065811 C50.601181,149.032379 43.286743,148.623245 35.980515,148.244080 C30.386187,147.953751 29.372238,146.822449 29.720306,141.086884 C30.101606,134.803711 32.692593,129.174133 35.590958,123.731682 C43.311493,109.234344 54.290752,97.939140 69.254166,90.135345 M44.525047,144.933350 C45.857677,144.917755 47.190277,144.892776 48.522945,144.887924 C87.998116,144.744080 127.473305,144.541214 166.948425,144.556122 C170.823181,144.557587 171.781082,143.338486 171.772781,139.725021 C171.758484,133.504532 170.294296,127.673347 166.703598,122.775230 C156.092514,108.300514 144.657837,94.593414 126.695343,88.777946 C121.994354,87.255974 120.854103,84.201447 121.880333,79.972183 C123.134644,74.802933 124.683754,69.704430 126.139381,64.585007 C128.360001,56.775085 133.649994,52.388256 141.418976,50.424080 C152.037918,47.739368 162.589020,44.785248 173.160507,41.914543 C178.731232,40.401798 180.444931,38.073330 179.564255,33.247311 C178.630859,28.132397 174.885681,27.855974 170.784515,28.230335 C157.617844,29.432215 145.102585,33.522823 132.435196,36.918358 C121.202065,39.929436 114.167587,47.275513 110.572189,58.235012 C108.756798,63.768703 106.865921,69.255280 105.698250,74.984489 C103.522018,85.662247 103.423889,85.665123 92.419380,86.424805 C91.427864,86.493240 90.436623,86.649879 89.460304,86.842049 C62.849186,92.079895 45.204247,108.043755 35.224068,132.785049 C30.402937,144.736847 30.713318,144.862045 44.525047,144.933350 z" style="fill: rgb(255, 0, 255);"/>
  <path opacity="1.000000" stroke="none" d=" M74.000153,206.608932 C101.467186,206.652924 128.434250,206.703964 155.401291,206.763748 C156.732300,206.766693 158.065079,206.813660 159.393738,206.894409 C171.975250,207.659286 178.680344,217.700272 174.682175,229.775314 C172.245041,237.135803 163.734924,243.739441 155.902267,244.159531 C136.119583,245.220535 116.316620,245.124893 96.515511,245.059769 C89.207932,245.035721 88.532738,245.503601 88.410767,252.910736 C88.287415,260.401367 88.277328,267.865997 86.445267,275.204041 C82.567558,290.735626 69.101639,303.026855 53.316162,305.232513 C49.537071,305.760590 45.718498,306.193085 41.909187,306.280182 C33.190823,306.479431 31.293133,304.294006 30.592577,295.673920 C29.187052,278.379547 30.027330,261.067993 29.839098,243.767410 C29.737841,234.460831 30.271955,225.142624 30.681356,215.836777 C30.990067,208.819626 33.285694,206.663330 40.047333,206.645660 C51.198227,206.616501 62.349216,206.625061 74.000153,206.608932 M40.533035,210.225662 C37.008125,209.876892 35.479473,211.631271 34.892658,214.998032 C33.939056,220.469131 34.525509,225.967575 34.193165,231.442871 C32.910595,252.572952 33.426197,273.727783 33.330132,294.874573 C33.311878,298.892456 34.014759,302.284851 38.896362,302.769379 C60.679596,304.931610 80.771454,292.495270 84.014229,271.257202 C85.154411,263.789795 84.786026,256.300537 84.765610,248.830673 C84.752792,244.145950 86.168205,242.552414 91.044136,242.522018 C111.347893,242.395432 131.661514,243.361740 151.960724,241.739624 C162.677414,240.883255 170.281723,235.103058 172.330811,225.173279 C173.938751,217.381256 169.003265,210.812088 161.161743,210.302979 C156.676270,210.011780 152.193207,209.499725 147.705551,209.457108 C126.056473,209.251495 104.405174,208.990616 82.756706,209.112488 C68.957237,209.190170 55.132397,208.828094 40.533035,210.225662 z" style="fill: rgb(255, 0, 255);"/>
  <path opacity="1.000000" stroke="none" d=" M156.610535,197.020447 C122.711250,198.109009 89.266068,198.576721 55.813072,198.263733 C51.174076,198.220322 46.456882,198.234451 41.918167,197.424576 C31.001802,195.476669 23.737268,179.791550 29.090263,169.888885 C32.475109,163.627167 36.983665,159.796402 45.111412,159.400452 C80.550537,157.673981 115.989517,159.168396 151.421616,158.682999 C155.538025,158.626602 159.726791,159.283936 163.778183,160.115936 C169.931152,161.379517 174.289276,166.909149 175.166428,174.334885 C175.873718,180.322647 174.315887,185.825500 171.076569,190.941925 C167.736954,196.216827 162.379532,196.457413 156.610535,197.020447 M56.556591,194.623047 C90.509796,195.053665 124.451126,194.227158 158.394028,193.624451 C165.943817,193.490402 170.828247,188.919937 171.752029,181.461060 C173.284485,169.087601 166.354019,161.516479 153.019806,161.415985 C127.555130,161.224091 102.086159,160.955292 76.625008,161.246307 C65.842392,161.369553 55.004921,160.696289 44.248058,162.265030 C36.833920,163.346298 32.771645,167.091675 30.772398,175.018295 C29.121952,181.561996 31.265928,186.033997 36.631130,190.744263 C42.409645,195.817383 49.085217,194.294052 56.556591,194.623047 z" style="fill: rgb(255, 0, 255);"/>
</svg>